<mxfile host="app.diagrams.net" agent="Mozilla/5.0 (Windows NT 10.0; Win64; x64) AppleWebKit/537.36 (KHTML, like Gecko) Chrome/136.0.0.0 Safari/537.36" version="27.1.1">
  <diagram name="Page-1" id="2YBvvXClWsGukQMizWep">
    <mxGraphModel dx="2242" dy="2360" grid="1" gridSize="10" guides="1" tooltips="1" connect="1" arrows="1" fold="1" page="1" pageScale="1" pageWidth="850" pageHeight="1100" math="0" shadow="0">
      <root>
        <mxCell id="0" />
        <mxCell id="1" parent="0" />
        <mxCell id="2P69eADOKf0qUDvWq_tV-30" value="" style="rounded=0;whiteSpace=wrap;html=1;fillColor=none;strokeColor=default;" vertex="1" parent="1">
          <mxGeometry x="20" y="-10" width="1110" height="1000" as="geometry" />
        </mxCell>
        <mxCell id="2P69eADOKf0qUDvWq_tV-26" value="&amp;nbsp; &amp;nbsp; &amp;nbsp; Interface Simra" style="shape=umlLifeline;perimeter=lifelinePerimeter;whiteSpace=wrap;html=1;container=1;dropTarget=0;collapsible=0;recursiveResize=0;outlineConnect=0;portConstraint=eastwest;newEdgeStyle={&quot;curved&quot;:0,&quot;rounded&quot;:0};participant=umlBoundary;size=100;align=center;" vertex="1" parent="1">
          <mxGeometry x="198.12" y="60" width="123.75" height="930" as="geometry" />
        </mxCell>
        <mxCell id="2P69eADOKf0qUDvWq_tV-46" value="" style="html=1;points=[[0,0,0,0,5],[0,1,0,0,-5],[1,0,0,0,5],[1,1,0,0,-5]];perimeter=orthogonalPerimeter;outlineConnect=0;targetShapes=umlLifeline;portConstraint=eastwest;newEdgeStyle={&quot;curved&quot;:0,&quot;rounded&quot;:0};" vertex="1" parent="2P69eADOKf0qUDvWq_tV-26">
          <mxGeometry x="56.870000000000005" y="710" width="10" height="50" as="geometry" />
        </mxCell>
        <mxCell id="2P69eADOKf0qUDvWq_tV-31" value="" style="shape=umlLifeline;perimeter=lifelinePerimeter;whiteSpace=wrap;html=1;container=1;dropTarget=0;collapsible=0;recursiveResize=0;outlineConnect=0;portConstraint=eastwest;newEdgeStyle={&quot;curved&quot;:0,&quot;rounded&quot;:0};participant=umlActor;size=110;" vertex="1" parent="1">
          <mxGeometry x="40" y="70" width="60" height="920" as="geometry" />
        </mxCell>
        <mxCell id="2P69eADOKf0qUDvWq_tV-32" value="Simra" style="shape=umlLifeline;perimeter=lifelinePerimeter;whiteSpace=wrap;html=1;container=1;dropTarget=0;collapsible=0;recursiveResize=0;outlineConnect=0;portConstraint=eastwest;newEdgeStyle={&quot;curved&quot;:0,&quot;rounded&quot;:0};participant=umlControl;size=100;" vertex="1" parent="1">
          <mxGeometry x="410" y="60" width="90" height="930" as="geometry" />
        </mxCell>
        <mxCell id="2P69eADOKf0qUDvWq_tV-35" value="SI SDM Data&lt;div&gt;Kehadiran&lt;/div&gt;" style="shape=umlLifeline;perimeter=lifelinePerimeter;whiteSpace=wrap;html=1;container=1;dropTarget=0;collapsible=0;recursiveResize=0;outlineConnect=0;portConstraint=eastwest;newEdgeStyle={&quot;curved&quot;:0,&quot;rounded&quot;:0};participant=umlEntity;size=80;" vertex="1" parent="1">
          <mxGeometry x="850" y="70" width="80" height="910" as="geometry" />
        </mxCell>
        <mxCell id="2P69eADOKf0qUDvWq_tV-36" value="SI SDM&amp;nbsp;&lt;span style=&quot;background-color: transparent; color: light-dark(rgb(0, 0, 0), rgb(255, 255, 255));&quot;&gt;Evaluasi Kerja&lt;/span&gt;" style="shape=umlLifeline;perimeter=lifelinePerimeter;whiteSpace=wrap;html=1;container=1;dropTarget=0;collapsible=0;recursiveResize=0;outlineConnect=0;portConstraint=eastwest;newEdgeStyle={&quot;curved&quot;:0,&quot;rounded&quot;:0};participant=umlEntity;size=80;" vertex="1" parent="1">
          <mxGeometry x="1030" y="70" width="80" height="920" as="geometry" />
        </mxCell>
        <mxCell id="2P69eADOKf0qUDvWq_tV-16" value="" style="html=1;points=[[0,0,0,0,5],[0,1,0,0,-5],[1,0,0,0,5],[1,1,0,0,-5]];perimeter=orthogonalPerimeter;outlineConnect=0;targetShapes=umlLifeline;portConstraint=eastwest;newEdgeStyle={&quot;curved&quot;:0,&quot;rounded&quot;:0};" vertex="1" parent="1">
          <mxGeometry x="450" y="220" width="10" height="550" as="geometry" />
        </mxCell>
        <mxCell id="2P69eADOKf0qUDvWq_tV-39" value="" style="endArrow=open;endFill=1;endSize=12;html=1;rounded=0;exitX=1;exitY=0;exitDx=0;exitDy=5;exitPerimeter=0;" edge="1" parent="1">
          <mxGeometry width="160" relative="1" as="geometry">
            <mxPoint x="459.9999999999998" y="220" as="sourcePoint" />
            <mxPoint x="1065" y="220" as="targetPoint" />
          </mxGeometry>
        </mxCell>
        <mxCell id="2P69eADOKf0qUDvWq_tV-40" value="" style="endArrow=open;endFill=1;endSize=12;html=1;rounded=0;" edge="1" parent="1" source="2P69eADOKf0qUDvWq_tV-16">
          <mxGeometry width="160" relative="1" as="geometry">
            <mxPoint x="265" y="270" as="sourcePoint" />
            <mxPoint x="885" y="270" as="targetPoint" />
          </mxGeometry>
        </mxCell>
        <mxCell id="2P69eADOKf0qUDvWq_tV-41" value="" style="endArrow=open;endFill=1;endSize=12;html=1;rounded=0;exitX=0;exitY=1;exitDx=0;exitDy=-5;exitPerimeter=0;" edge="1" parent="1">
          <mxGeometry width="160" relative="1" as="geometry">
            <mxPoint x="1065" y="490" as="sourcePoint" />
            <mxPoint x="460" y="490" as="targetPoint" />
          </mxGeometry>
        </mxCell>
        <mxCell id="2P69eADOKf0qUDvWq_tV-42" value="" style="endArrow=open;endFill=1;endSize=12;html=1;rounded=0;" edge="1" parent="1">
          <mxGeometry width="160" relative="1" as="geometry">
            <mxPoint x="684.9999999999998" y="389.31" as="sourcePoint" />
            <mxPoint x="459.9999999999998" y="389.31" as="targetPoint" />
          </mxGeometry>
        </mxCell>
        <mxCell id="2P69eADOKf0qUDvWq_tV-43" value="" style="endArrow=open;endFill=1;endSize=12;html=1;rounded=0;" edge="1" parent="1">
          <mxGeometry width="160" relative="1" as="geometry">
            <mxPoint x="885" y="430" as="sourcePoint" />
            <mxPoint x="459.9999999999998" y="430" as="targetPoint" />
          </mxGeometry>
        </mxCell>
        <mxCell id="2P69eADOKf0qUDvWq_tV-44" value="" style="endArrow=open;endFill=1;endSize=12;html=1;rounded=0;" edge="1" parent="1" source="2P69eADOKf0qUDvWq_tV-16">
          <mxGeometry width="160" relative="1" as="geometry">
            <mxPoint x="265" y="310" as="sourcePoint" />
            <mxPoint x="685" y="310" as="targetPoint" />
          </mxGeometry>
        </mxCell>
        <mxCell id="2P69eADOKf0qUDvWq_tV-33" value="SI SDM Profil&amp;nbsp;&lt;div&gt;Pegawai&lt;/div&gt;" style="shape=umlLifeline;perimeter=lifelinePerimeter;whiteSpace=wrap;html=1;container=1;dropTarget=0;collapsible=0;recursiveResize=0;outlineConnect=0;portConstraint=eastwest;newEdgeStyle={&quot;curved&quot;:0,&quot;rounded&quot;:0};participant=umlEntity;size=80;" vertex="1" parent="1">
          <mxGeometry x="650" y="70" width="80" height="920" as="geometry" />
        </mxCell>
        <mxCell id="2P69eADOKf0qUDvWq_tV-17" value="" style="html=1;points=[[0,0,0,0,5],[0,1,0,0,-5],[1,0,0,0,5],[1,1,0,0,-5]];perimeter=orthogonalPerimeter;outlineConnect=0;targetShapes=umlLifeline;portConstraint=eastwest;newEdgeStyle={&quot;curved&quot;:0,&quot;rounded&quot;:0};" vertex="1" parent="1">
          <mxGeometry x="685" y="310" width="10" height="80" as="geometry" />
        </mxCell>
        <mxCell id="2P69eADOKf0qUDvWq_tV-18" value="" style="html=1;points=[[0,0,0,0,5],[0,1,0,0,-5],[1,0,0,0,5],[1,1,0,0,-5]];perimeter=orthogonalPerimeter;outlineConnect=0;targetShapes=umlLifeline;portConstraint=eastwest;newEdgeStyle={&quot;curved&quot;:0,&quot;rounded&quot;:0};" vertex="1" parent="1">
          <mxGeometry x="885" y="270" width="10" height="160" as="geometry" />
        </mxCell>
        <mxCell id="2P69eADOKf0qUDvWq_tV-45" value="" style="html=1;points=[[0,0,0,0,5],[0,1,0,0,-5],[1,0,0,0,5],[1,1,0,0,-5]];perimeter=orthogonalPerimeter;outlineConnect=0;targetShapes=umlLifeline;portConstraint=eastwest;newEdgeStyle={&quot;curved&quot;:0,&quot;rounded&quot;:0};" vertex="1" parent="1">
          <mxGeometry x="1065" y="220" width="10" height="270" as="geometry" />
        </mxCell>
        <mxCell id="2P69eADOKf0qUDvWq_tV-51" value="" style="endArrow=open;endFill=1;endSize=12;html=1;rounded=0;exitX=1;exitY=0.81;exitDx=0;exitDy=0;exitPerimeter=0;" edge="1" parent="1">
          <mxGeometry width="160" relative="1" as="geometry">
            <mxPoint x="460" y="690.3000000000002" as="sourcePoint" />
            <mxPoint x="460" y="700" as="targetPoint" />
            <Array as="points">
              <mxPoint x="510" y="690" />
              <mxPoint x="510" y="700" />
            </Array>
          </mxGeometry>
        </mxCell>
        <mxCell id="2P69eADOKf0qUDvWq_tV-52" value="" style="endArrow=open;endFill=1;endSize=12;html=1;rounded=0;exitX=1;exitY=0.81;exitDx=0;exitDy=0;exitPerimeter=0;" edge="1" parent="1">
          <mxGeometry width="160" relative="1" as="geometry">
            <mxPoint x="460" y="570" as="sourcePoint" />
            <mxPoint x="460" y="580" as="targetPoint" />
            <Array as="points">
              <mxPoint x="510" y="570" />
              <mxPoint x="510" y="580" />
            </Array>
          </mxGeometry>
        </mxCell>
        <mxCell id="2P69eADOKf0qUDvWq_tV-53" value="" style="endArrow=open;endFill=1;endSize=12;html=1;rounded=0;exitX=1;exitY=0.81;exitDx=0;exitDy=0;exitPerimeter=0;" edge="1" parent="1" target="2P69eADOKf0qUDvWq_tV-16">
          <mxGeometry width="160" relative="1" as="geometry">
            <mxPoint x="460" y="525" as="sourcePoint" />
            <mxPoint x="460" y="535" as="targetPoint" />
            <Array as="points">
              <mxPoint x="510" y="525" />
              <mxPoint x="510" y="535" />
            </Array>
          </mxGeometry>
        </mxCell>
        <mxCell id="2P69eADOKf0qUDvWq_tV-54" value="" style="endArrow=open;endFill=1;endSize=12;html=1;rounded=0;exitX=1;exitY=0.81;exitDx=0;exitDy=0;exitPerimeter=0;" edge="1" parent="1">
          <mxGeometry width="160" relative="1" as="geometry">
            <mxPoint x="460" y="650" as="sourcePoint" />
            <mxPoint x="460" y="660" as="targetPoint" />
            <Array as="points">
              <mxPoint x="510" y="650" />
              <mxPoint x="510" y="660" />
            </Array>
          </mxGeometry>
        </mxCell>
        <mxCell id="2P69eADOKf0qUDvWq_tV-55" value="" style="endArrow=open;endFill=1;endSize=12;html=1;rounded=0;exitX=1;exitY=0.81;exitDx=0;exitDy=0;exitPerimeter=0;" edge="1" parent="1">
          <mxGeometry width="160" relative="1" as="geometry">
            <mxPoint x="460" y="610" as="sourcePoint" />
            <mxPoint x="460" y="620" as="targetPoint" />
            <Array as="points">
              <mxPoint x="510" y="610" />
              <mxPoint x="510" y="620" />
            </Array>
          </mxGeometry>
        </mxCell>
        <mxCell id="2P69eADOKf0qUDvWq_tV-59" value="" style="endArrow=open;endFill=1;endSize=12;html=1;rounded=0;" edge="1" parent="1" source="2P69eADOKf0qUDvWq_tV-16" target="2P69eADOKf0qUDvWq_tV-46">
          <mxGeometry width="160" relative="1" as="geometry">
            <mxPoint x="290" y="850" as="sourcePoint" />
            <mxPoint x="450" y="850" as="targetPoint" />
          </mxGeometry>
        </mxCell>
        <mxCell id="2P69eADOKf0qUDvWq_tV-60" value="" style="endArrow=open;endFill=1;endSize=12;html=1;rounded=0;exitX=0.07;exitY=0.988;exitDx=0;exitDy=0;exitPerimeter=0;" edge="1" parent="1" source="2P69eADOKf0qUDvWq_tV-46" target="2P69eADOKf0qUDvWq_tV-31">
          <mxGeometry width="160" relative="1" as="geometry">
            <mxPoint x="160" y="900" as="sourcePoint" />
            <mxPoint x="320" y="900" as="targetPoint" />
          </mxGeometry>
        </mxCell>
        <mxCell id="2P69eADOKf0qUDvWq_tV-62" value="&lt;span style=&quot;font-size: 14px; text-wrap-mode: nowrap;&quot;&gt;meminta data kerja&lt;/span&gt;" style="html=1;whiteSpace=wrap;strokeWidth=0;strokeColor=none;" vertex="1" parent="1">
          <mxGeometry x="615" y="190" width="150" height="20" as="geometry" />
        </mxCell>
        <mxCell id="2P69eADOKf0qUDvWq_tV-63" value="&lt;span style=&quot;font-size: 14px; text-wrap-mode: nowrap;&quot;&gt;meminta data Profil Pegawai&lt;/span&gt;" style="html=1;whiteSpace=wrap;strokeWidth=0;strokeColor=none;" vertex="1" parent="1">
          <mxGeometry x="480" y="290" width="150" height="20" as="geometry" />
        </mxCell>
        <mxCell id="2P69eADOKf0qUDvWq_tV-64" value="&lt;span style=&quot;font-size: 14px; text-wrap-mode: nowrap;&quot;&gt;memberikan&amp;nbsp;&lt;/span&gt;&lt;span style=&quot;font-size: 14px; text-wrap-mode: nowrap; background-color: transparent; color: light-dark(rgb(0, 0, 0), rgb(255, 255, 255));&quot;&gt;data Profil Pegawai&lt;/span&gt;" style="html=1;whiteSpace=wrap;strokeWidth=0;strokeColor=none;" vertex="1" parent="1">
          <mxGeometry x="505" y="368" width="150" height="20" as="geometry" />
        </mxCell>
        <mxCell id="2P69eADOKf0qUDvWq_tV-65" value="&lt;span style=&quot;text-wrap-mode: nowrap;&quot;&gt;&lt;font style=&quot;font-size: 12px;&quot;&gt;Menghitung Gaji Pokok&lt;/font&gt;&lt;/span&gt;" style="html=1;whiteSpace=wrap;strokeWidth=0;strokeColor=none;" vertex="1" parent="1">
          <mxGeometry x="483" y="500" width="150" height="20" as="geometry" />
        </mxCell>
        <mxCell id="2P69eADOKf0qUDvWq_tV-66" value="&lt;span style=&quot;text-wrap-mode: nowrap;&quot;&gt;&lt;font style=&quot;font-size: 12px;&quot;&gt;mengitung uang makan &amp;amp; transportasi&lt;/font&gt;&lt;/span&gt;" style="html=1;whiteSpace=wrap;strokeWidth=0;strokeColor=none;" vertex="1" parent="1">
          <mxGeometry x="463" y="547" width="216" height="20" as="geometry" />
        </mxCell>
        <mxCell id="2P69eADOKf0qUDvWq_tV-67" value="&lt;span style=&quot;text-wrap-mode: nowrap;&quot;&gt;&lt;font style=&quot;font-size: 12px;&quot;&gt;Menghitung Tunjangan &amp;amp; insentif&lt;/font&gt;&lt;/span&gt;" style="html=1;whiteSpace=wrap;strokeWidth=0;strokeColor=none;" vertex="1" parent="1">
          <mxGeometry x="481" y="587" width="150" height="20" as="geometry" />
        </mxCell>
        <mxCell id="2P69eADOKf0qUDvWq_tV-68" value="&lt;span style=&quot;font-size: 14px; text-wrap-mode: nowrap;&quot;&gt;memberikan data kerja&lt;/span&gt;" style="html=1;whiteSpace=wrap;strokeWidth=0;strokeColor=none;" vertex="1" parent="1">
          <mxGeometry x="615" y="460" width="150" height="20" as="geometry" />
        </mxCell>
        <mxCell id="2P69eADOKf0qUDvWq_tV-69" value="&lt;span style=&quot;font-size: 14px; text-wrap-mode: nowrap;&quot;&gt;memberikan data kerja&lt;/span&gt;" style="html=1;whiteSpace=wrap;strokeWidth=0;strokeColor=none;" vertex="1" parent="1">
          <mxGeometry x="710" y="408" width="150" height="20" as="geometry" />
        </mxCell>
        <mxCell id="2P69eADOKf0qUDvWq_tV-70" value="&lt;span style=&quot;font-size: 14px; text-wrap-mode: nowrap;&quot;&gt;meminta Kehadiran&lt;/span&gt;" style="html=1;whiteSpace=wrap;strokeWidth=0;strokeColor=none;" vertex="1" parent="1">
          <mxGeometry x="710" y="249" width="150" height="20" as="geometry" />
        </mxCell>
        <mxCell id="2P69eADOKf0qUDvWq_tV-71" value="&lt;span style=&quot;text-wrap-mode: nowrap;&quot;&gt;&lt;font style=&quot;font-size: 12px;&quot;&gt;Membuat Slip Remunerasi&lt;/font&gt;&lt;/span&gt;" style="html=1;whiteSpace=wrap;strokeWidth=0;strokeColor=none;" vertex="1" parent="1">
          <mxGeometry x="470" y="668" width="150" height="20" as="geometry" />
        </mxCell>
        <mxCell id="2P69eADOKf0qUDvWq_tV-72" value="&lt;span style=&quot;text-wrap-mode: nowrap;&quot;&gt;&lt;font style=&quot;font-size: 12px;&quot;&gt;menghitung besaran remunerasi&lt;/font&gt;&lt;/span&gt;" style="html=1;whiteSpace=wrap;strokeWidth=0;strokeColor=none;" vertex="1" parent="1">
          <mxGeometry x="478" y="628" width="150" height="20" as="geometry" />
        </mxCell>
        <mxCell id="2P69eADOKf0qUDvWq_tV-73" value="&lt;span style=&quot;text-wrap-mode: nowrap;&quot;&gt;&lt;font style=&quot;font-size: 12px;&quot;&gt;Slip Remunerasi&lt;/font&gt;&lt;/span&gt;" style="html=1;whiteSpace=wrap;strokeWidth=0;strokeColor=none;" vertex="1" parent="1">
          <mxGeometry x="290" y="748" width="150" height="20" as="geometry" />
        </mxCell>
        <mxCell id="2P69eADOKf0qUDvWq_tV-74" value="&lt;span style=&quot;text-wrap-mode: nowrap;&quot;&gt;&lt;font style=&quot;font-size: 12px;&quot;&gt;Slip Remunerasi&lt;/font&gt;&lt;/span&gt;" style="html=1;whiteSpace=wrap;strokeWidth=0;strokeColor=none;" vertex="1" parent="1">
          <mxGeometry x="90" y="790" width="150" height="20" as="geometry" />
        </mxCell>
        <mxCell id="2P69eADOKf0qUDvWq_tV-75" value="&lt;font style=&quot;font-size: 18px;&quot;&gt;Menghitung Remunerasi Pegawai&lt;/font&gt;" style="text;align=center;fontStyle=1;verticalAlign=middle;spacingLeft=3;spacingRight=3;strokeColor=none;rotatable=0;points=[[0,0.5],[1,0.5]];portConstraint=eastwest;html=1;" vertex="1" parent="1">
          <mxGeometry x="20" y="10" width="1110" height="26" as="geometry" />
        </mxCell>
      </root>
    </mxGraphModel>
  </diagram>
</mxfile>
